# xmcd
#
# Track frame offsets:
# 151
# 14791
# 30001
# 43761
# 58958
# 71054
# 85770
# 99547
# 110627
# 125969
# 140564
# 153777
# 166097
# 180280
# 191924
#
# Disc length: 2733 seconds
#
# Revision: 0
# Processed by: cddbd v1.4PL0 Copyright (c) Steve Scherf et al.
# Submitted via: MacMP3 Pro 5.0 (http://mp3.act2.co.jp/)
#
DISCID=cf0aab0f
DTITLE=jazz - etc-5
DYEAR=1900
DGENRE=
TTITLE0=Cafe Society Bluse
TTITLE1=I Wanna Hear Swing Songs
TTITLE2=All Gog`s Chillun Got Rhythm
TTITLE3=April In Paris
TTITLE4=Begin The Beguine
TTITLE5=Septmber In The Rain
TTITLE6=Gypsy In My Soul
TTITLE7=Night And Day
TTITLE8=All The ThingsYou Are
TTITLE9=You Took Adbentage Of Me
TTITLE10=Blue Skies
TTITLE11=Get Happy
TTITLE12=Just You, Just Me
TTITLE13=Backstage At Stuff` s
TTITLE14=My Buddy
EXTD=
EXTT0=
EXTT1=
EXTT2=
EXTT3=
EXTT4=
EXTT5=
EXTT6=
EXTT7=
EXTT8=
EXTT9=
EXTT10=
EXTT11=
EXTT12=
EXTT13=
EXTT14=
PLAYORDER=
